PathFileType	4	(X/Y/Z)	C:\Users\Biomechanik\Documents\powerlifting_model\powerlifing_model\simulations\Athlete_03\25_03_31\Walking_01\c3dfile.trc
DataRate	CameraRate	NumFrames	NumMarkers	Units	OrigDataRate	OrigDataStartFrame	OrigNumFrames
200.0	200.0	6	53	mm	200.0	814	239	
Frame#	Time	GLAB			RFHD			LFHD			C7			T6			SPINMOL			SPINM2			SPINM3			T12			BELTOL			BELT2			BELT3			SACROL			SACR2			SACR3			LTHOL			LTH2			LTH3			LSHAOL			LSHA2			LSHA3			LHEE			LTOE			LM5			RTHOL			RTH2			RTH3			RSHAOL			RSHA2			RSHA3			RHEE			RTOE			RM5			STRN			XIPH			LACR			LUAOL			LUA2			LUA3			LLAOL			LLA2			LLA3			LWRR			LWRU			RACR			RUAOL			RUA2			RUA3			RLAOL			RLA2			RLA3			RWRR			RWRU			
		X1	Y1	Z1	X2	Y2	Z2	X3	Y3	Z3	X4	Y4	Z4	X5	Y5	Z5	X6	Y6	Z6	X7	Y7	Z7	X8	Y8	Z8	X9	Y9	Z9	X10	Y10	Z10	X11	Y11	Z11	X12	Y12	Z12	X13	Y13	Z13	X14	Y14	Z14	X15	Y15	Z15	X16	Y16	Z16	X17	Y17	Z17	X18	Y18	Z18	X19	Y19	Z19	X20	Y20	Z20	X21	Y21	Z21	X22	Y22	Z22	X23	Y23	Z23	X24	Y24	Z24	X25	Y25	Z25	X26	Y26	Z26	X27	Y27	Z27	X28	Y28	Z28	X29	Y29	Z29	X30	Y30	Z30	X31	Y31	Z31	X32	Y32	Z32	X33	Y33	Z33	X34	Y34	Z34	X35	Y35	Z35	X36	Y36	Z36	X37	Y37	Z37	X38	Y38	Z38	X39	Y39	Z39	X40	Y40	Z40	X41	Y41	Z41	X42	Y42	Z42	X43	Y43	Z43	X44	Y44	Z44	X45	Y45	Z45	X46	Y46	Z46	X47	Y47	Z47	X48	Y48	Z48	X49	Y49	Z49	X50	Y50	Z50	X51	Y51	Z51	X52	Y52	Z52	X53	Y53	Z53	
814	4.065	221.73753	1570.0269	-290.41736	285.1153	1597.2336	-239.55054	147.31325	1587.0895	-246.10689	221.90961	1407.3251	-67.88221	220.36385	1241.4554	-4.9805727	199.40038	1200.5447	3.6328123	248.87712	1193.9375	11.139167	216.2066	1136.543	1.4010743	218.37439	1068.5449	-22.531414	199.13814	1030.1482	14.742843	250.00867	1030.3777	18.808275	222.58936	968.77576	21.094938	194.42365	924.08038	0.37883812	246.12386	927.22742	7.2839541	220.88504	867.39514	23.165901	47.423767	632.9068	-181.56184	80.412712	564.7052	-161.3503	61.554073	578.30225	-205.63187	49.904743	302.78287	-315.42963	66.694405	226.54248	-300.91705	54.44302	248.17517	-344.42639	136.21132	49.008156	-380.0896	119.38431	113.49425	-588.74463	29.844482	69.238907	-554.30853	413.11661	691.15674	0.39874378	428.15289	621.64209	-34.519066	404.14948	631.01813	8.5735111	399.77142	368.32495	135.37419	396.66882	289.34186	133.2254	385.28152	319.62128	171.47034	278.6145	134.0531	289.46625	285.06238	42.62735	104.95574	389.55362	41.545528	150.39313	223.26251	1298.9536	-234.70929	229.39822	1154.3943	-245.36928	46.859905	1362.3562	-142.54993	-51.040901	1208.2847	-105.58256	-67.430099	1149.3928	-80.025185	-52.056725	1146.5796	-128.64963	-97.230408	948.92511	-71.470154	-75.317184	890.07202	-23.24515	-100.41961	887.69043	-66.349823	-109.78886	783.86829	-66.906364	-53.278229	773.10529	-120.35957	389.63562	1361.7346	-152.68401	493.74881	1222.8198	-164.94695	502.26187	1170.4884	-204.84625	519.10803	1162.7885	-156.65054	542.75079	977.9483	-293.45157	545.47418	975.66858	-373.17935	531.86578	939.63861	-341.4881	519.2348	903.10425	-424.05792	444.50256	927.72205	-446.10928
815	4.07	220.21271	1569.6342	-297.50943	283.53702	1596.8849	-246.58698	145.73714	1586.6533	-253.2607	220.20175	1406.8271	-75.121796	218.9272	1240.9333	-12.352595	198.04556	1200.0029	-3.7459638	247.51341	1193.4283	3.6633823	214.92654	1136.0217	-6.043819	217.21114	1068.043	-29.991993	197.76276	1029.6277	6.9640355	248.5786	1029.7766	10.953946	221.18338	968.24573	13.328278	193.58333	923.50684	-7.0615602	245.29156	926.54883	-0.20307359	219.97292	866.70044	15.487828	46.070435	633.53448	-190.63359	78.104546	565.00519	-169.98386	60.047855	578.84344	-214.59338	49.434898	302.79865	-322.05679	66.420059	226.8304	-306.66718	54.1175	247.89258	-350.37317	136.33118	49.53072	-382.78668	119.51914	108.85656	-592.71204	30.073021	65.592537	-557.16772	412.41785	690.65717	-7.1302485	427.6806	621.17657	-41.908947	403.53867	630.54517	1.1110809	400.05249	369.3378	129.4238	396.82794	290.34271	128.36377	385.5593	321.15924	166.21043	279.22614	137.69936	286.8736	284.98688	42.41383	105.0854	389.73425	41.83923	149.64435	221.89024	1298.5576	-242.02597	228.19107	1154.0509	-252.89455	45.272141	1361.5444	-150.01677	-52.332539	1207.1967	-113.35462	-68.71283	1148.2642	-87.902901	-53.195175	1145.5106	-136.48705	-98.265488	947.90942	-79.244354	-76.462585	889.26373	-30.705624	-101.44443	886.69305	-73.859917	-110.83427	782.90173	-74.000534	-54.06776	771.83661	-127.1562	388.17468	1361.3815	-159.71051	492.25009	1222.3333	-171.59	500.86725	1169.9111	-211.33311	517.56744	1162.2941	-163.09163	541.53687	977.13281	-299.35962	544.48871	974.6507	-379.05176	530.77789	938.71033	-347.33362	518.39502	902.0119	-429.85397	443.66385	926.53339	-452.0824
816	4.075	218.67543	1569.3611	-304.61722	281.94702	1596.6487	-253.63478	144.1489	1586.3401	-260.4325	218.46979	1406.4396	-82.382042	217.48604	1240.521	-19.745277	196.69196	1199.5728	-11.141824	246.15619	1193.0382	-3.8300667	213.65137	1135.6144	-13.504591	216.06592	1067.6636	-37.456886	196.44786	1029.2506	-0.86592358	247.21075	1029.3101	3.031455	219.8275	967.85559	5.5123625	192.78831	923.02032	-14.50493	244.50696	925.9292	-7.7150879	219.08879	866.06183	7.741653	44.690594	634.33313	-199.69402	75.788727	565.4834	-178.62714	58.499104	579.552	-223.54814	48.834488	303.01923	-328.6871	65.934273	227.33817	-312.33276	53.677967	247.79176	-356.2597	136.40135	50.17791	-385.06772	119.63107	104.0733	-596.29956	30.26498	61.878006	-559.59381	411.68185	690.11859	-14.844129	427.17249	620.70081	-49.529568	402.89261	630.03204	-6.5765939	400.34259	370.37891	123.16848	396.99506	291.38733	123.22337	385.83411	322.74869	160.64789	279.82401	141.53305	283.9534	284.89615	42.19059	105.21461	389.90833	42.180588	148.83569	220.48196	1298.2814	-249.36308	226.94299	1153.8287	-260.44894	43.656429	1360.8313	-157.49982	-53.640553	1206.1952	-121.16712	-70.010147	1147.2166	-95.828735	-54.342644	1144.5308	-144.37225	-99.305473	946.9668	-87.118439	-77.617905	888.51569	-38.282711	-102.46802	885.7663	-81.493294	-111.87274	782.00928	-81.252838	-54.833332	770.66479	-134.0955	386.69031	1361.137	-166.77953	490.73346	1221.9415	-178.22621	499.45905	1169.407	-217.78714	516.00732	1161.8954	-169.49576	540.30914	976.33868	-305.13229	543.51501	973.60052	-384.78406	529.69037	937.76996	-353.01956	517.58179	900.85822	-435.46869	442.84955	925.25201	-457.90009
817	4.08	217.12807	1569.21	-311.74023	280.34769	1596.5273	-260.69394	142.55113	1586.1523	-267.62183	216.71814	1406.165	-89.660217	216.04379	1240.2197	-27.154972	195.34335	1199.2563	-18.551514	244.80893	1192.7698	-11.33693	212.38623	1135.3225	-20.976978	214.94638	1067.41	-44.921124	195.20932	1029.0273	-8.7346106	245.9225	1028.9915	-4.9445376	218.53813	967.61609	-2.3402536	192.0403	922.62762	-21.950724	243.77142	925.37549	-15.250947	218.23315	865.48779	-0.06799563	43.290676	635.28772	-208.70813	73.473648	566.12488	-187.24814	56.918907	580.41455	-232.46301	48.090496	303.44223	-335.33435	65.208672	228.06078	-317.93765	53.112366	247.87625	-362.10733	136.41841	50.929417	-386.99796	119.72307	99.242821	-599.52948	30.415604	58.176975	-561.63812	410.90866	689.53967	-22.742355	426.6312	620.21509	-57.385624	402.21307	629.47571	-14.494462	400.63831	371.44824	116.59263	397.16879	292.47675	117.78723	386.099	324.38898	154.76389	280.39368	145.55847	280.66867	284.78772	41.96159	105.32944	390.06989	42.583172	147.96298	219.03934	1298.1302	-256.71689	225.65536	1153.7316	-268.02692	42.016567	1360.2233	-164.99532	-54.962994	1205.2889	-129.01768	-71.319145	1146.2589	-103.80032	-55.497059	1143.6488	-152.3029	-100.34847	946.10541	-95.090492	-78.780235	887.83478	-45.975819	-103.4879	884.91748	-89.249443	-112.90196	781.1983	-88.664902	-55.573143	769.59869	-141.17978	385.18448	1361.0066	-173.88986	489.19962	1221.651	-184.85751	498.03696	1168.9818	-224.20996	514.42871	1161.6011	-175.86446	539.06757	975.57214	-310.76736	542.55353	972.52417	-390.37402	528.6037	936.82373	-358.5426	516.79565	899.64679	-440.89749	442.06161	923.88196	-463.55939
818	4.085	215.57297	1569.1809	-318.87753	278.74164	1596.5209	-267.76419	140.9464	1586.0907	-274.82776	214.9519	1406.0039	-96.95298	214.60472	1240.0283	-34.577595	194.00403	1199.0526	-25.971613	243.47549	1192.6226	-18.85297	211.13655	1135.1455	-28.456423	213.8597	1067.2834	-52.380367	194.06084	1028.9664	-16.627193	244.72902	1028.8322	-12.95667	217.32977	967.53632	-10.214431	191.33992	922.33392	-29.399384	243.0853	924.89349	-22.810617	217.40614	864.98651	-7.9350677	41.877182	636.37848	-217.6461	71.162979	566.90833	-195.81941	55.317665	581.41321	-241.31046	47.196499	304.05566	-342.00565	64.220551	228.98361	-323.49576	52.416245	248.13916	-367.92899	136.38342	51.761852	-388.63672	119.80249	94.454002	-602.42285	30.523727	54.564541	-563.34778	410.09952	688.91815	-30.823706	426.06085	619.71954	-65.480911	401.50342	628.87244	-22.646561	400.93671	372.54504	109.68101	397.34766	293.61145	112.03857	386.34753	326.07855	148.53996	280.92047	149.77882	276.98212	284.6597	41.732918	105.41197	390.21298	43.062485	147.02122	217.5645	1298.1084	-264.08313	224.33028	1153.761	-275.62253	40.357143	1359.7268	-172.49918	-56.297657	1204.4856	-136.90355	-72.637169	1145.3995	-111.81527	-56.65646	1142.8727	-160.27635	-101.39282	945.33301	-103.15824	-79.94696	887.22748	-53.784077	-104.50188	884.1543	-97.127472	-113.91998	780.47565	-96.238319	-56.285854	768.64685	-148.41129	383.659	1360.9951	-181.03954	487.64966	1221.468	-191.48582	496.60056	1168.6417	-230.60307	512.8335	1161.4183	-182.19948	537.81244	974.83972	-316.26282	541.60455	971.42828	-395.81958	527.51794	935.87823	-363.89954	516.03693	898.38202	-446.13599	441.30197	922.42767	-469.05765
819	4.09	214.01247	1569.2721	-326.02768	277.13141	1596.6268	-274.84476	139.33723	1586.1527	-282.0488	213.17673	1405.9548	-104.2562	213.17352	1239.9429	-42.008652	192.67847	1198.9579	-33.398521	242.15993	1192.5938	-26.373869	209.90773	1135.08	-35.938229	212.81154	1067.2816	-59.831482	193.01299	1029.0737	-24.527187	243.64189	1028.8401	-20.986189	216.21391	967.62238	-18.093452	190.68657	922.14221	-36.851669	242.44748	924.48798	-30.394682	216.60747	864.56476	-15.852113	40.4571	637.58124	-226.48335	68.858521	567.80688	-204.31871	53.705254	582.52557	-250.06845	46.156422	304.83713	-348.69998	62.955074	230.08105	-329.01016	51.596367	248.56236	-373.72852	136.30101	52.651463	-390.03702	119.88034	89.782417	-605.00104	30.591568	51.106163	-564.76703	409.25659	688.25165	-39.086132	425.46713	619.21393	-73.817879	400.76865	628.21808	-31.035702	401.23502	373.66766	102.41922	397.53015	294.79083	105.96119	386.57358	327.81497	141.95848	281.3902	154.19586	272.85724	284.51105	41.513084	105.44014	390.3316	43.636024	146.00403	216.06032	1298.2168	-271.45734	222.97054	1153.9165	-283.22931	38.683533	1359.3463	-180.00722	-57.642143	1203.793	-144.82164	-73.962502	1144.6462	-119.87114	-57.819035	1142.2102	-168.28966	-102.43707	944.65704	-111.31898	-81.115868	886.69958	-61.706333	-105.50809	883.48376	-105.12605	-114.92526	779.84784	-103.97452	-56.970715	767.81732	-155.79236	382.1163	1361.1061	-188.22592	486.08536	1221.3979	-198.11269	495.15009	1168.3933	-236.96785	511.22354	1161.3539	-188.50275	536.54407	974.14789	-321.61725	540.6684	970.32001	-401.1189	526.4339	934.94006	-369.08777	515.30615	897.06799	-451.18048	440.57251	920.89398	-474.39261
